<?xml version="1.0" encoding="UTF-8"?>
<!DOCTYPE svg PUBLIC "-//W3C//DTD SVG 1.1//EN" "http://www.w3.org/Graphics/SVG/1.1/DTD/svg11.dtd">
<!-- Creator: CorelDRAW X8 -->
<svg xmlns="http://www.w3.org/2000/svg" xml:space="preserve" version="1.1" shape-rendering="geometricPrecision" text-rendering="geometricPrecision" image-rendering="optimizeQuality" fill-rule="evenodd" clip-rule="evenodd"
viewBox="0 0 10000 11590"
 xmlns:xlink="http://www.w3.org/1999/xlink">
 <g id="Слой_x0020_1">
  <metadata id="CorelCorpID_0Corel-Layer"/>

  <path fill="#135f6c" d="M5000 1590c1198,0 2298,422 3159,1125l852 -852 667 667 -848 847c730,869 1170,1990 1170,3213 0,2762 -2239,5000 -5000,5000 -2761,0 -5000,-2238 -5000,-5000 0,-2761 2239,-5000 5000,-5000zm0 1106c2151,0 3895,1743 3895,3894 0,2151 -1744,3895 -3895,3895 -2151,0 -3895,-1744 -3895,-3895 0,-2151 1744,-3894 3895,-3894zm-1631 -2696l3343 0 0 944 -3343 0 0 -944zm1200 7130l0 -3343 943 0 0 3343 -943 0z"/>
 </g>
</svg>
