<?xml version="1.0" encoding="UTF-8"?>
<!DOCTYPE svg PUBLIC "-//W3C//DTD SVG 1.1//EN" "http://www.w3.org/Graphics/SVG/1.1/DTD/svg11.dtd">
<!-- Creator: CorelDRAW X8 -->
<svg xmlns="http://www.w3.org/2000/svg" xml:space="preserve" version="1.1" shape-rendering="geometricPrecision" text-rendering="geometricPrecision" image-rendering="optimizeQuality" fill-rule="evenodd" clip-rule="evenodd"
viewBox="0 0 10000 10066"
 xmlns:xlink="http://www.w3.org/1999/xlink">
 <g id="Слой_x0020_1">
  <metadata id="CorelCorpID_0Corel-Layer"/>
  <path fill="#135f6c" d="M225 0l2693 0c124,0 225,101 225,225l0 2738c0,124 -101,225 -225,225l-2693 0c-124,0 -225,-101 -225,-225l0 -2738c0,-124 101,-225 225,-225zm404 524l1885 0c62,0 113,50 113,112l0 1916c0,62 -51,112 -113,112l-1885 0c-62,0 -113,-50 -113,-112l0 -1916c0,-62 51,-112 113,-112zm209 250l1467 0c41,0 75,34 75,75l0 1490c0,41 -34,75 -75,75l-1467 0c-41,0 -75,-34 -75,-75l0 -1490c0,-41 34,-75 75,-75zm3316 775l2583 692c339,91 585,337 676,676l670 2502c59,221 1,439 -161,601l-4 4 2082 2081 -1960 1961 -2082 -2082 -4 4c-161,161 -380,220 -600,161l-2503 -671c-339,-91 -585,-337 -676,-676l-692 -2582c-45,-170 0,-338 124,-462l63 -62 2220 2220c186,186 490,186 676,0l1285 -1284c186,-186 186,-490 0,-676l-2221 -2221 63 -62c124,-124 292,-169 461,-124zm1110 4801l0 0c78,-78 205,-78 283,0l445 445c77,78 77,205 0,283l0 0c-78,78 -206,78 -283,0l-445 -445c-78,-78 -78,-205 0,-283zm510 -510l0 0c78,-78 205,-78 283,0l445 445c78,77 78,205 0,282l0 0c-78,78 -205,78 -283,0l-445 -444c-78,-78 -78,-205 0,-283zm511 -510l0 0c77,-78 205,-78 283,0l444 444c78,78 78,205 0,283l0 0c-78,78 -205,78 -283,0l-444 -445c-78,-77 -78,-205 0,-282z"/>
 </g>
</svg>
