<?xml version="1.0" encoding="UTF-8"?>
<!DOCTYPE svg PUBLIC "-//W3C//DTD SVG 1.1//EN" "http://www.w3.org/Graphics/SVG/1.1/DTD/svg11.dtd">
<!-- Creator: CorelDRAW X8 -->
<svg xmlns="http://www.w3.org/2000/svg" xml:space="preserve" version="1.1" shape-rendering="geometricPrecision" text-rendering="geometricPrecision" image-rendering="optimizeQuality" fill-rule="evenodd" clip-rule="evenodd"
viewBox="0 0 10000 9153"
 xmlns:xlink="http://www.w3.org/1999/xlink">
 <g id="Слой_x0020_1">
  <metadata id="CorelCorpID_0Corel-Layer"/>
  <path fill="#135f6c" d="M721 721l8590 0 0 5367 -8590 0 0 -5367zm2193 8432l4172 0c198,0 360,-162 360,-361l0 0c0,-198 -164,-334 -360,-360 -411,-53 -801,-249 -1166,-620l3433 0c356,0 647,-291 647,-647l0 -6518c0,-356 -291,-647 -647,-647l-8706 0c-356,0 -647,291 -647,647l0 6518c0,356 291,647 647,647l3477 0c-334,316 -735,525 -1210,620 -194,39 -360,162 -360,360l0 0c0,199 162,361 360,361zm2086 -2613c245,0 444,199 444,444 0,246 -199,444 -444,444 -245,0 -444,-198 -444,-444 0,-245 199,-444 444,-444zm0 -5237c1188,0 2151,963 2151,2151 0,1188 -963,2151 -2151,2151 -442,0 -853,-133 -1195,-362l-757 202 140 -831c-215,-335 -339,-733 -339,-1160 0,-1188 963,-2151 2151,-2151zm-17 666c11,0 23,0 34,0 84,0 158,54 209,138 50,82 77,192 70,308 -18,309 -34,585 -48,829 -12,220 -24,419 -34,600 -3,58 -29,109 -66,145 -36,35 -85,57 -137,57 -7,0 -15,0 -22,0 -52,0 -101,-22 -137,-57 -37,-36 -62,-87 -66,-145 -10,-181 -22,-380 -34,-600 -14,-244 -30,-520 -48,-829 -7,-116 20,-225 70,-308 51,-84 125,-138 209,-138zm17 2345c173,0 313,140 313,313 0,172 -140,313 -313,313 -173,0 -313,-141 -313,-313 0,-173 140,-313 313,-313z"/>
 </g>
</svg>
