<?xml version="1.0" encoding="UTF-8"?>
<!DOCTYPE svg PUBLIC "-//W3C//DTD SVG 1.1//EN" "http://www.w3.org/Graphics/SVG/1.1/DTD/svg11.dtd">
<!-- Creator: CorelDRAW X8 -->
<svg xmlns="http://www.w3.org/2000/svg" xml:space="preserve" version="1.1" shape-rendering="geometricPrecision" text-rendering="geometricPrecision" image-rendering="optimizeQuality" fill-rule="evenodd" clip-rule="evenodd"
viewBox="0 0 10000 9915"
 xmlns:xlink="http://www.w3.org/1999/xlink"
 enable-background="new 0 0 81 82">
 <g id="Слой_x0020_1">
  <metadata id="CorelCorpID_0Corel-Layer"/>
  <path fill="#135f6c" d="M8005 0l614 163 -717 2596 420 234 -237 1037 1915 5882 -640 0 -1633 -4788 -1482 4788 -691 0 863 -2984 -1090 -329 250 -714 620 45 504 -1589 -928 -841c107,97 10,287 -75,340 -586,362 -1204,640 -1811,953 -191,73 -424,231 -615,74 -297,-273 -380,-697 -546,-1051 -417,214 -728,578 -1036,922 -190,188 -153,475 -169,718 11,1143 8,2285 18,3426 -4,306 9,674 -277,869 -468,397 -1325,24 -1254,-619 -5,-1562 16,-3125 -8,-4688 18,-282 -29,-612 176,-840 366,-433 808,-794 1193,-1209 796,-778 530,-779 1649,-885 1,-33 2,-66 4,-99 -48,-112 -75,-236 -75,-366 0,-511 415,-926 927,-926 511,0 926,415 926,926 0,512 -415,927 -926,927 -198,0 -381,-62 -532,-167l-32 -6c224,617 364,1260 531,1892 258,-102 768,-291 1139,-450 163,-70 328,-123 499,-23 -54,-62 -231,-229 -286,-298 80,-77 124,-191 230,-275 420,358 879,738 1411,1189l1171 -3834z"/>
 </g>
</svg>
