<?xml version="1.0" encoding="UTF-8"?>
<!DOCTYPE svg PUBLIC "-//W3C//DTD SVG 1.1//EN" "http://www.w3.org/Graphics/SVG/1.1/DTD/svg11.dtd">
<svg xmlns="http://www.w3.org/2000/svg" xml:space="preserve" version="1.1" shape-rendering="geometricPrecision" text-rendering="geometricPrecision" image-rendering="optimizeQuality" fill-rule="evenodd" clip-rule="evenodd"
viewBox="0 0 10000 9802"
 xmlns:xlink="http://www.w3.org/1999/xlink"
 enable-background="new 0 0 81 82">
 <g id="layer_0020_1">
  <metadata id="CorelCorpID_0Corel-Layer"/>
  <g id="_2157506144384">
   <path d="M0 2162l10000 0 0 7639 -10000 0 0 -7639 0 0zm3365 4176c-548,364 -1192,-173 -1731,234 -406,305 -499,917 -357,1133 257,-185 423,-334 696,-534 341,-267 1039,645 718,898 -195,155 -489,388 -692,548 281,150 973,71 1255,-240 273,-301 226,-1033 624,-1246 927,-541 1878,-1107 2816,-1625 548,-364 1192,172 1731,-234 406,-305 499,-917 357,-1134 -257,186 -422,334 -696,534 -341,268 -1039,-645 -718,-898 195,-154 489,-387 692,-547 -281,-150 -973,-72 -1255,240 -273,301 -226,1033 -624,1246 -927,541 -1878,1107 -2816,1625l0 0zm-665 -4350c183,-1075 1174,-1986 2283,-1988 1110,-2 2101,915 2286,1988l-839 0c-82,-649 -910,-1172 -1437,-1172 -925,0 -1298,600 -1465,1172l-828 0 0 0z"  fill="#135f6c"/>
  </g>
 </g>
</svg>